<svg fill="#FA243C" role="img" viewBox="0 0 24 24" xmlns="http://www.w3.org/2000/svg"><title>Apple Music</title><path d="M23.994 6.124a9.23 9.23 0 00-.24-2.19c-.317-1.31-1.062-2.31-2.18-3.043a5.022 5.022 0 00-1.877-.726 10.496 10.496 0 00-1.564-.15c-.04-.003-.083-.01-.124-.013H5.986c-.152.01-.303.017-.455.026-.747.043-1.49.123-2.193.4-1.336.53-2.3 1.452-2.865 2.78-.192.448-.292.925-.363 1.408-.056.392-.088.785-.1 1.18 0 .032-.007.062-.01.093v12.223c.01.14.017.283.027.424.05.815.154 1.624.497 2.373.65 1.42 1.738 2.353 3.234 2.801.42.127.856.187 1.293.228.555.053 1.11.06 1.667.06h11.03a12.5 12.5 0 001.57-.1c.822-.106 1.596-.35 2.295-.81a5.046 5.046 0 001.88-2.207c.186-.42.293-.87.37-1.324.113-.675.138-1.358.137-2.04-.002-3.8 0-7.595-.003-11.393zm-6.423 3.99v5.712c0 .417-.058.827-.244 1.206-.29.59-.76.962-1.388 1.14-.35.1-.706.157-1.07.173-.95.045-1.773-.6-1.943-1.536a1.88 1.88 0 011.35-2.147c.44-.12.89-.197 1.35-.22.3-.015.6-.045.892-.104.223-.046.447-.11.662-.182a.4.4 0 00.295-.371c.005-.07.009-.14.009-.21 0-1.774 0-3.548-.002-5.322a.67.67 0 00-.016-.133c-.023-.108-.084-.15-.2-.138-.1.012-.197.028-.293.053-.978.25-1.956.505-2.932.758l-4.65 1.207c-.015.004-.03.01-.045.013-.16.047-.214.117-.222.28-.005.062-.002.125-.002.187-.002 2.858 0 5.717-.003 8.575 0 .417-.058.827-.244 1.206-.29.59-.76.962-1.388 1.14-.35.1-.706.157-1.07.173-.95.045-1.773-.6-1.943-1.536a1.88 1.88 0 011.35-2.147c.44-.12.89-.197 1.35-.22.3-.015.6-.045.892-.104.223-.046.447-.11.662-.182a.4.4 0 00.295-.371c.005-.06.009-.12.009-.18.001-3.3.001-6.597.004-9.896 0-.139.013-.28.039-.416.06-.32.25-.526.558-.614a5.16 5.16 0 01.542-.13c.892-.188 1.788-.365 2.684-.545l3.262-.67c.892-.183 1.784-.365 2.676-.55.388-.078.774-.16 1.162-.235.178-.034.355.004.528.047.19.046.29.166.31.362.007.062.005.125.005.188v6.045z"/></svg>
